<?xml version="1.0" standalone="no"?><!DOCTYPE svg PUBLIC "-//W3C//DTD SVG 20010904//EN"
 "http://www.w3.org/TR/2001/REC-SVG-20010904/DTD/svg10.dtd"><svg version="1.0" xmlns="http://www.w3.org/2000/svg" width="180.000000pt" height="180.000000pt" viewBox="0 0 180.000000 180.000000" preserveAspectRatio="xMidYMid meet"><metadata>Created by potrace 1.14, written by Peter Selinger 2001-2017</metadata><g transform="translate(0.000000,180.000000) scale(0.100000,-0.100000)" fill="#000000" stroke="none"><path d="M220 1791 c-85 -26 -164 -90 -200 -161 -19 -38 -20 -58 -20 -730 0
-676 0 -692 20 -731 27 -52 86 -108 146 -139 l49 -25 685 0 685 0 49 25 c60
31 119 87 146 139 20 39 20 55 20 731 0 672 -1 692 -20 730 -27 54 -80 104
-143 138 l-52 27 -670 2 c-369 1 -681 -2 -695 -6z m929 -631 c240 -567 288
-686 284 -697 -4 -10 -40 -13 -133 -13 -104 0 -130 3 -141 16 -13 16 -47 94
-171 389 -71 171 -83 193 -93 183 -8 -8 -155 -359 -155 -369 0 -5 44 -10 97
-11 l97 -3 39 -87 c22 -48 37 -94 34 -102 -6 -14 -45 -16 -317 -16 -262 0
-311 2 -316 15 -5 13 15 72 64 185 11 25 84 198 162 385 78 187 146 348 152
358 8 16 23 17 151 15 l142 -3 104 -245z"/></g></svg>